<svg width="180" height="100" viewBox="0 0 180 100" fill="none" xmlns="http://www.w3.org/2000/svg">
<path fill-rule="evenodd" clip-rule="evenodd" d="M83.1295 55.1996C83.7615 55.3411 90.27 54.3601 92.298 54.3696C96.4861 54.3884 97.9953 55.1713 101.344 56.0203L100.269 56.3598C100.089 56.3787 94.5619 55.6807 89.6569 56.0674C85.4122 56.3976 82.8749 57.3408 79.2339 57.9917C80.6205 54.0866 80.7242 53.4735 86.8083 52.5585C90.3077 52.0303 95.6749 51.5209 98.5801 53.0867C93.147 53.3697 87.6195 53.2754 83.139 55.1996H83.1295ZM115.7 36.4853C110.031 36.6646 104.089 36.4853 98.7971 35.7873C86.1857 34.1366 81.9127 32.2312 70.7823 28.2035C70.7823 24.0343 69.5749 24.9776 67.1224 23.1193L67.0564 19.9971C65.6226 19.1954 64.7926 18.8652 62.9532 18.8652C60.8309 18.8652 59.6141 18.8652 59.3311 20.6008L63.0098 20.431V22.8835C59.8687 23.0533 59.6989 23.3457 57.5483 24.6003C59.8404 24.6286 63.2079 23.3174 65.3868 25.119C63.406 25.0436 60.3875 24.7889 58.8594 26.2132C62.8023 26.0906 62.8589 26.317 66.066 26.9207C63.0381 27.1376 57.6143 26.6094 57.0861 29.7222C58.1331 32.401 62.9532 32.1369 65.6132 32.0992C67.9525 34.8818 74.1214 41.9185 69.207 46.8518C66.7451 49.3231 58.3124 52.483 53.6338 53.0867C57.0767 50.9361 65.4623 49.0873 67.4809 45.352C64.236 47.5309 52.6622 52.4925 48.6722 52.2661C49.7381 52.417 56.8975 49.408 58.5482 48.7194C61.727 47.3894 65.1038 45.8142 66.4716 43.2391C62.4721 45.9557 59.9348 47.2102 55.0487 48.842C52.483 49.7004 44.0597 52.7188 41.494 52.5113V49.1345C39.9188 48.078 35.7307 46.9178 34.1083 49.1722L37.9285 49.2382V52.1435C35.1459 52.5585 34.0045 52.4547 32.1274 54.0205C33.8819 53.8602 35.9382 53.1433 37.8625 53.5112L39.3623 54.2092C37.5889 54.2092 35.1459 53.9545 33.797 55.2562C35.7496 55.2279 38.3624 54.8506 39.9565 56.1334C36.9286 56.1523 32.9669 55.7656 31.9765 58.3973C33.033 60.5007 36.457 60.7554 39.2491 60.4913C42.7297 60.1612 42.824 58.5482 46.1254 58.0388C51.219 57.2654 57.7181 56.5108 62.9909 56.6522C62.1986 59.8782 60.5196 63.3683 60.7837 67.1885C61.4628 63.8965 63.9153 58.5388 65.8018 56.7843C63.7267 62.2269 62.4438 65.4623 61.51 72.0934C60.6516 78.168 60.3875 84.9123 60.6328 91.1378C63.1041 90.1663 61.9533 87.2799 62.3684 81.4411C62.8023 75.3948 64.0097 69.141 66.2923 63.7078C67.3016 61.3119 68.2921 57.8502 71.2728 57.7181C71.1501 60.8969 71.1596 67.1885 71.8481 70.1597C72.8291 68.7071 71.4991 55.0393 75.6495 48.5591C74.6591 51.8322 73.5083 55.9448 73.9328 59.9725C74.4798 57.9728 74.8006 56.0957 75.442 54.0866C75.7532 53.115 76.1117 52.1152 76.4701 51.1719C76.6493 50.7003 76.8757 50.106 77.0644 49.7759L77.6492 48.9269C77.6775 48.8043 77.7624 48.7949 77.819 48.7289C77.536 51.1153 76.6305 53.9168 76.2249 56.4825C75.3099 62.2175 73.5649 77.3662 74.81 81.9882C76.8286 81.7335 75.9985 80.3281 76.0928 77.5077C76.2532 72.6216 76.423 66.764 78.1208 62.1892L80.7054 62.425C81.4317 64.3304 81.5826 66.8772 82.3089 68.6316C82.5825 69.2825 82.3749 68.8958 82.7239 69.2731C84.0162 68.0374 83.5917 64.5002 83.5917 62.5193C84.4973 63.6135 84.7048 67.679 85.5537 68.0563L85.8178 61.4723L87.2799 66.6036C87.5629 67.4431 87.3742 66.9809 87.7515 67.3677L87.9779 61.3497C89.1758 62.7457 89.3268 65.5472 89.5909 67.6884C93.845 67.0564 94.3638 66.8394 98.8914 67.396C99.1933 66.0471 99.4762 64.8869 100.184 63.9153C101.382 64.4907 102.127 65.7736 102.985 67.1319C103.419 67.8299 104.872 70.1031 104.9 70.7257C105.126 68.7543 104.183 67.2828 103.966 65.4812C104.193 66.0943 105.051 67.3394 105.457 68.2638C110.56 79.8847 108.871 89.5437 110.39 94.9297C112.305 94.5619 111.965 93.779 111.842 91.6944C111.361 83.6484 110.343 75.2816 108.711 67.3299C108.579 66.6885 108.381 66.066 108.258 65.434V63.8304C109.928 63.4154 112.135 63.6984 113.908 64.104C116.068 64.6039 116.2 65.3491 117.03 66.9243C118.37 69.4711 119.511 72.5839 120.398 75.4892C120.718 73.8667 119.021 68.4336 118.398 66.5659C117.775 64.7265 117.134 61.9251 115.238 61.1799L113.276 60.3781L114.927 59.3877C114.059 56.5862 112.04 54.6148 111.069 52.2284C113.352 54.2186 115.927 57.671 117.483 60.9158C117.483 59.6235 114.748 53.8225 114.182 52.002C114.427 52.7283 115.644 54.2469 116.181 55.2374C118.209 58.9444 119.671 62.9438 120.747 67.1036C122.379 73.4328 122.982 79.5735 123.841 86.2235L126.171 85.0538C126.378 80.1866 124.774 69.9805 123.633 65.2831C121.577 56.8032 120.388 56.1146 117.417 49.1816C119.954 45.9651 133.707 42.3618 139.065 40.947C148.592 38.4379 147.309 40.5885 152.157 39.5415C155.185 38.8906 155.336 38.1172 155.298 34.995C155.261 32.2312 154.497 31.4578 152.299 30.6843C152.016 27.7319 152.591 27.1659 149.262 26.7698C147.498 26.5622 144.762 26.5622 144.121 28.1375L147.96 27.7885L147.922 30.3919C145.8 30.5428 143.621 30.8635 142.555 32.4482C146.488 31.5992 147.979 30.9484 151.799 32.5802C149.733 32.5614 148.488 32.3161 146.328 32.6746C144.149 33.0424 144.008 33.4103 142.489 34.2026C145.432 33.8065 150.29 32.5802 152.223 34.9101C143.319 33.731 143.451 36.1175 141.659 37.2777C137.226 40.1452 111.503 42.3618 107.013 41.2771C108.701 40.7583 118.049 40.3433 120.681 39.9943C125.388 39.3717 128.981 38.5039 133.16 37.589C132.198 37.3248 120.464 38.7397 117.983 38.8718C111.965 39.1925 107.296 38.9284 101.533 38.485C112.012 37.8248 122.435 37.9946 131.773 35.1082C127.538 35.2025 121.737 36.3438 115.663 36.5325L115.7 36.4853ZM97.5709 80.7997C99.4291 80.3847 100.391 80.6111 100.561 76.9323C103.259 79.6678 100.203 83.1296 96.4861 81.1959L97.5709 80.7903V80.7997ZM97.5143 84.2803C93.5997 84.469 90.4115 80.7808 91.8547 76.3758C92.864 73.2819 98.1179 70.4238 100.665 73.9139C96.7314 73.1027 94.1185 74.178 93.4205 77.6021C92.647 81.4223 94.9486 83.2333 97.5048 84.2803H97.5143ZM83.7615 78.8849C83.8464 76.6871 83.9502 73.6215 85.7895 72.1594C85.5632 73.6687 85.0821 76.0551 85.4217 77.7341L86.1763 79.3377C86.1951 76.489 86.5913 73.5177 88.308 72.1594C87.8741 74.178 87.3365 74.9986 87.4685 77.4794C87.5157 78.3755 87.6572 79.1584 87.8836 79.9319L89.0815 82.1391C88.2137 78.3095 88.0722 76.0928 90.138 72.9989C91.4585 71.0181 94.0714 69.0089 97.9199 69.2731C104.127 69.707 108.286 77.0833 104.683 83.2428C97.8727 94.8731 73.3479 80.7808 83.9785 71.3482C83.2899 73.5743 82.0071 76.5173 83.7898 78.866L83.7615 78.8849ZM53.6244 29.1939C27.0621 27.581 15.4978 8.82894 45.55 1.49038C50.9455 0.179243 59.067 -0.245224 64.9246 0.13208C66.1037 0.207541 66.3961 0.264137 67.1507 0.848958C59.6329 0.96215 54.4356 1.1508 47.2668 2.8864C42.1071 4.1315 36.1363 7.02731 33.3254 10.2816C31.486 12.4133 30.8352 15.5638 32.1935 18.3087C34.3252 22.6194 40.8432 25.4775 45.1161 26.798L51.4643 28.3639C51.8699 28.4393 52.2095 28.4771 52.5396 28.5997C53.6998 29.0147 53.0867 28.7695 53.6244 29.1939ZM122.03 32.7878C117.134 32.5048 111.852 27.3263 113.842 21.9686C117.049 13.3566 131.594 10.1872 140.197 9.3666C144.357 8.97043 155.61 8.9044 158.524 10.2344C147.092 10.0174 137.518 9.79107 128 14.0263C120.634 17.3089 112.323 24.0343 119.747 30.5994C120.671 31.4106 121.313 31.7596 122.03 32.7878ZM21.9968 53.2471C17.5258 53.1905 10.6494 49.625 13.9225 44.6162C18.9218 36.9853 40.2395 36.7589 50.8983 40.8055C53.6998 41.8714 54.1337 42.2958 55.9165 44.3804C54.4167 43.9277 52.7283 42.7109 50.3607 42.0411C43.4277 40.0886 35.2496 39.5415 28.0997 40.5697C8.31013 43.4277 15.9128 52.0208 21.9968 53.2376V53.2471ZM14.696 85.8744C15.0544 85.3085 20.8932 80.2998 22.2138 79.2339L30.1843 72.3858C32.7689 70.2729 35.7684 67.5658 38.2586 65.6226C42.9372 61.9628 42.8712 60.5385 48.5307 60.9441C47.9459 61.8968 41.9845 66.2546 40.4564 67.4809C37.2305 70.0654 16.1581 85.45 14.7054 85.8744H14.696ZM158.666 36.7306L158.534 38.9378C166.457 38.4002 184.049 33.5329 179.153 23.3174C178.012 20.9404 174.975 17.9597 172.409 17.2145C174.098 19.0916 175.909 20.1481 177.003 23.091C180.417 32.269 165.438 35.5892 158.666 36.7306ZM77.6775 27.1282L78.7245 26.3359C81.2619 24.9776 88.8363 23.1382 91.5246 17.0919C94.4581 10.4891 86.4027 4.46165 82.8937 3.20711C85.6103 3.63158 89.9304 6.24441 91.9773 7.95171C94.2411 9.83823 96.7125 13.6962 94.9863 17.5541C92.1943 23.7985 80.5733 28.4865 77.6775 27.1282ZM133.396 49.9551L128.066 48.0214C134.962 48.2478 146.762 52.3415 145.328 59.9914C144.677 63.4626 140.857 65.7924 137.952 67.1413C135.594 68.2355 129.255 70.6597 126.406 70.1031C126.34 67.9619 126.661 68.8392 130.406 67.8204C134.471 66.7074 141.385 64.1417 142.791 60.1329C144.743 54.5488 137.282 51.3323 133.386 49.9645L133.396 49.9551ZM128.142 30.5051C127.425 31.1088 129.302 31.5615 126.491 30.9012C125.246 30.6088 120.756 27.4961 121.794 23.5721C123.878 15.6676 142.838 13.8848 150.865 14.6677L153.676 15.2431C145.979 15.2808 138.905 15.5827 132.547 18.2332C123.312 22.0817 122.671 28.0149 128.142 30.5051ZM0.0094326 66.6225C2.32042 65.3114 5.38602 62.774 7.85736 60.9441C13.6301 56.6711 13.0264 56.19 15.8562 57.7181C14.2527 60.1517 7.92339 65.434 6.97069 67.2451C9.5458 66.066 13.5264 62.6891 15.743 60.9158C21.3554 56.4259 19.2519 60.1517 27.5432 59.2179C25.3077 58.8312 21.8459 57.9256 19.6953 57.1333C16.8466 56.0863 15.1582 54.9732 12.8661 53.9828C11.6776 53.9545 0.886665 65.3491 0 66.6131L0.0094326 66.6225ZM38.7303 79.0169C39.6264 76.7626 51.1907 66.4338 53.8036 64.038C55.4826 62.5005 57.0012 60.6611 58.9443 59.4254C58.6708 60.8498 58.2275 61.7458 57.9445 63.1796C57.5294 65.2831 57.9256 65.3774 56.3881 66.6225C51.9736 70.1975 46.6159 73.5932 42.06 77.0361C40.8526 77.9511 40.3715 78.6491 38.7303 79.0264V79.0169ZM51.5492 20.2801C48.7383 19.884 44.3804 17.3749 45.135 13.9414C46.5405 7.56497 65.8584 5.80108 73.9611 10.7721C67.6884 9.96085 62.4533 8.47993 55.3977 10.291C52.7094 10.9796 49.889 12.0643 48.5307 13.9508C47.5592 15.2903 47.7195 16.5165 48.6345 17.6767C49.8041 19.1482 50.6908 19.1859 51.5492 20.2801ZM8.5931 51.4832C4.84836 50.2758 2.95241 37.1739 25.7227 34.2309C31.3445 33.5046 36.8249 34.1932 37.3908 34.0895C28.5336 34.8535 16.4127 35.8816 10.4702 42.7863C6.35757 47.5592 11.5455 49.2948 8.5931 51.4832ZM158.553 33.665C176.097 32.5236 175.72 19.9311 156.053 19.035C156.449 19.3463 156.223 19.2237 156.836 19.4878C156.921 19.5255 157.515 19.7236 157.628 19.7613C160.496 20.6197 166.599 22.1761 167.778 25.402C169.089 29.0053 163.467 30.5239 160.741 31.2314C158.505 31.8068 158.336 31.2974 158.553 33.6744V33.665ZM51.7001 24.9964C45.7198 24.987 33.1839 19.6198 36.5891 12.2341C38.6454 7.77249 46.0405 5.54639 50.9455 4.81065L57.1238 4.60313C50.6248 4.77292 41.4186 8.15923 39.3906 12.7152C36.1646 19.9783 47.3328 23.1759 51.7001 24.9964ZM77.3379 7.30086C79.3754 6.3293 90.3172 11.4606 86.5064 16.9598C85.0632 19.035 83.0352 20.3744 80.3752 21.412C79.1112 21.9025 77.753 22.3364 76.3947 22.7043C74.1969 23.308 73.5932 23.7513 72.7442 21.6667C76.9983 20.1009 81.5637 19.5255 83.7993 15.9506C86.4121 11.7719 80.2243 8.46107 77.3379 7.30086ZM112.154 99.797C113.503 97.9293 121.652 93.3073 122.982 91.6095C119.492 92.7508 114.446 96.7785 110.824 98.4292C110.814 97.1747 113.059 96.1277 114.965 94.8826C116.653 93.779 118.077 92.7602 119.719 91.7227C121.341 90.7039 122.879 89.7135 124.548 88.6476C125.84 87.8176 128.283 85.4311 129.717 86.8554C131.698 88.8269 127.991 90.4115 126.953 91.0624C123.709 93.081 114.653 98.8726 112.144 99.7875L112.154 99.797ZM35.0044 91.3359C35.5609 90.27 54.9638 72.0651 57.0956 71.4614L57.2559 74.9892C55.0958 75.923 37.3154 90.6002 35.0044 91.3265V91.3359ZM60.9912 96.9672C62.2741 95.458 72.7537 88.0911 73.3479 87.9308C71.0181 89.0155 68.8769 90.1851 66.5093 91.5812C64.4718 92.7885 61.4157 94.9109 59.3028 95.6655C59.5858 94.3449 59.8687 94.5524 61.1044 93.7601L72.084 86.6196C73.6592 85.6009 75.0835 83.9408 77.4605 84.469C77.8661 85.1576 78.1114 85.5726 78.0925 86.7988C76.0645 88.4307 63.3116 96.1371 60.9818 96.9766L60.9912 96.9672ZM112.974 33.4669C111.314 33.6461 110.399 34.1272 109.164 32.9387C106.711 30.5711 105.523 26.4773 106.23 22.9778C106.72 20.582 107.824 18.5634 109.23 16.9787C110.371 15.6959 112.503 13.8942 113.974 13.2906C110.154 17.1485 106.004 23.0627 109.588 28.9204C110.748 30.8258 112.314 31.7973 112.974 33.4669ZM129.453 52.0303C133.245 52.351 140.291 55.2374 137.782 60.3498C136.254 63.4626 128.783 65.8962 126.887 65.6981C124.633 65.4529 128.944 66.4621 126.038 65.4434C125.963 65.4151 125.84 65.368 125.755 65.3019C125.916 63.406 126.425 64.4624 130.708 62.8495C132.434 62.1986 134.311 61.2459 135.367 59.9159C136.999 57.8596 135.594 55.841 134.443 54.8129C133.849 54.2847 132.943 53.8225 132.189 53.4452C131.198 52.9547 130.283 52.7377 129.462 52.0208L129.453 52.0303ZM38.2681 29.3826C37.023 30.0712 28.1563 28.9581 25.1002 23.0533C23.6758 20.3084 24.5248 18.6105 24.6191 17.7333C24.638 17.6013 24.6946 17.573 24.7417 17.5069C28.4865 26.7132 30.0994 25.6001 38.2681 29.3826ZM140.593 46.399C139.263 45.8142 137.603 45.4463 136.509 44.8709C140.036 40.7111 149.384 48.2667 149.309 54.1149C148.441 53.2376 147.781 52.1152 146.969 51.153C145.187 49.0496 143.225 47.5686 140.593 46.399ZM139.904 30.8446C137.81 30.9673 133.264 28.8827 132 27.2602C129.595 24.1758 133.103 21.3083 135.801 20.7895C134.613 22.0252 131.604 23.723 134.452 26.4679C136.377 28.3261 138.357 28.1752 140.065 29.3826L139.914 30.8446H139.904ZM20.2424 70.4616C21.063 69.1787 28.5148 62.142 29.6844 61.3214L32.9669 62.3307C32.2406 63.472 22.0723 69.6409 20.2424 70.4616ZM88.176 29.5146C92.7602 27.2414 95.9862 25.3454 98.4387 20.8555C98.5896 24.6003 93.6186 29.4014 92.0339 30.1278C90.6945 30.7503 89.3739 30.024 88.176 29.5146ZM49.7193 88.0817C50.2852 86.78 56.2466 80.0734 57.7558 79.7055C58.1331 83.8559 57.7181 83.0447 54.8978 84.9312C53.5961 85.8084 51.0775 87.6761 49.7193 88.0817ZM123.643 54.0205C123.954 53.9545 124.256 53.9357 124.576 53.9451C126.916 54.0488 135.32 57.1616 130.198 60.2083C129.434 58.9255 130.604 57.7653 127.444 56.5202C126.51 56.1523 125.925 55.9354 124.991 55.709C124.699 55.643 123.793 55.426 123.718 55.3977C122.85 54.9544 123.275 55.1242 122.794 54.4167C123.369 53.9545 122.699 54.2186 123.643 54.0205ZM25.5718 49.2948C23.2608 48.2384 21.7422 46.6348 24.5248 45.003L26.6094 43.9371C26.6565 43.8145 26.7697 43.8239 26.8452 43.7579C18.4973 44.0031 18.7992 49.823 26.9395 50.2947L25.5718 49.2948ZM145.177 23.242C146.083 22.6194 148.073 22.5156 149.346 22.7515C150.884 23.0439 150.837 23.657 150.742 25.1945L145.102 25.2794L145.177 23.242ZM60.1328 15.0167L60.0951 17.0636C62.557 17.0636 62.9249 16.7618 65.5377 17.1391L65.6132 14.9224C63.4248 14.3187 62.4721 14.064 60.1328 15.0167ZM37.6078 44.1069C39.5603 44.0597 40.1263 44.2861 40.0225 46.1821C39.1453 46.6725 39.334 46.4273 37.9285 46.3613C37.0041 46.3141 36.0891 46.3896 35.1742 46.4556C35.1742 44.437 35.2025 44.1729 37.5984 44.1069H37.6078Z" fill="white"/>
</svg>
